<?xml version="1.0" encoding="utf-8"?>
<!-- Generator: Adobe Illustrator 19.0.0, SVG Export Plug-In . SVG Version: 6.00 Build 0)  -->
<svg version="1.1" id="Layer_1" xmlns="http://www.w3.org/2000/svg" xmlns:xlink="http://www.w3.org/1999/xlink" x="0px" y="0px"
	 viewBox="0 0 150 150" style="enable-background:new 0 0 150 150;" xml:space="preserve">
<path id="XMLID_92_" d="M133.3,35.5h-19.1V16.4c0-1.5-1.2-2.7-2.7-2.7H15.9c-1.5,0-2.7,1.2-2.7,2.7V112c0,1.5,1.2,2.7,2.7,2.7H35
	v19.1c0,1.5,1.2,2.7,2.7,2.7h95.6c1.5,0,2.7-1.2,2.7-2.7V38.2C136,36.7,134.8,35.5,133.3,35.5z M35,38.2v71H18.6V19.1h90.1v16.4h-71
	C36.2,35.5,35,36.7,35,38.2z M130.6,131.1H40.4V41h90.1V131.1z M54.1,86c0-1.5,1.2-2.7,2.7-2.7h26v-26c0-1.5,1.2-2.7,2.7-2.7
	s2.7,1.2,2.7,2.7v26h26c1.5,0,2.7,1.2,2.7,2.7s-1.2,2.7-2.7,2.7h-26v26c0,1.5-1.2,2.7-2.7,2.7s-2.7-1.2-2.7-2.7v-26h-26
	C55.3,88.8,54.1,87.5,54.1,86z"/>
</svg>
