<?xml version="1.0" encoding="utf-8"?>
<!-- Generator: Adobe Illustrator 19.0.0, SVG Export Plug-In . SVG Version: 6.00 Build 0)  -->
<svg version="1.1" id="Layer_1" xmlns="http://www.w3.org/2000/svg" xmlns:xlink="http://www.w3.org/1999/xlink" x="0px" y="0px"
	 viewBox="-590 886 150 150" style="enable-background:new -590 886 150 150;" xml:space="preserve">
<g>
	<path d="M-469.1,1016h-91.8c-6.7,0-12.1-5.4-12.1-12.1v-82.1c0-6.7,5.4-12.1,12.1-12.1h91.8c6.7,0,12.1,5.4,12.1,12.1v82.1
		C-457,1010.6-462.4,1016-469.1,1016z M-560.9,919.3c-1.3,0-2.4,1.1-2.4,2.4v82.1c0,1.3,1.1,2.4,2.4,2.4h91.8c1.3,0,2.4-1.1,2.4-2.4
		v-82.1c0-1.3-1.1-2.4-2.4-2.4C-469.1,919.3-560.9,919.3-560.9,919.3z M-461.8,938.7h-106.3c-2.7,0-4.8-2.2-4.8-4.8
		c0-2.7,2.2-4.8,4.8-4.8h106.3c2.7,0,4.8,2.2,4.8,4.8C-457,936.5-459.2,938.7-461.8,938.7z M-548.8,924.2c-2.7,0-4.8-2.2-4.8-4.8
		v-14.5c0-2.7,2.2-4.8,4.8-4.8c2.7,0,4.8,2.2,4.8,4.8v14.5C-544,922-546.2,924.2-548.8,924.2z M-481.2,924.2c-2.7,0-4.8-2.2-4.8-4.8
		v-14.5c0-2.7,2.2-4.8,4.8-4.8c2.7,0,4.8,2.2,4.8,4.8v14.5C-476.3,922-478.5,924.2-481.2,924.2z"/>
	<circle cx="-544" cy="991.8" r="4.8"/>
	<circle cx="-544" cy="972.5" r="4.8"/>
	<circle cx="-529.5" cy="991.8" r="4.8"/>
	<circle cx="-529.5" cy="972.5" r="4.8"/>
	<circle cx="-529.5" cy="953.2" r="4.8"/>
	<circle cx="-500.5" cy="991.8" r="4.8"/>
	<circle cx="-500.5" cy="972.5" r="4.8"/>
	<circle cx="-500.5" cy="953.2" r="4.8"/>
	<circle cx="-486" cy="972.5" r="4.8"/>
	<circle cx="-486" cy="953.2" r="4.8"/>
	<circle cx="-515" cy="991.8" r="4.8"/>
	<circle cx="-515" cy="972.5" r="4.8"/>
	<circle cx="-515" cy="953.2" r="4.8"/>
</g>
</svg>
