<?xml version="1.0" encoding="utf-8"?>
<!-- Generator: Adobe Illustrator 19.0.0, SVG Export Plug-In . SVG Version: 6.00 Build 0)  -->
<svg version="1.1" id="Layer_1" xmlns="http://www.w3.org/2000/svg" xmlns:xlink="http://www.w3.org/1999/xlink" x="0px" y="0px"
	 viewBox="-49 0.5 150 150" style="enable-background:new -49 0.5 150 150;" xml:space="preserve">
<path d="M26,13.7c-34.2,0-61.8,27.7-61.8,61.8s27.7,61.8,61.8,61.8s61.8-27.7,61.8-61.8S60.2,13.7,26,13.7z M35.3,105.5
	C8.5,92.3,1.5,68.5,0.5,59.9c-1-8.6,14-16.3,14-16.3l9.4,16c0,0-10.2,5.5-8.8,8.4c7.5,15.7,17.1,21.6,17.1,21.6
	c3.2,1.1,10.2-6.6,10.2-6.6l13.5,12.7C56,95.7,44.7,110,35.3,105.5z"/>
</svg>
