<?xml version="1.0" encoding="utf-8"?>
<!-- Generator: Adobe Illustrator 26.3.1, SVG Export Plug-In . SVG Version: 6.00 Build 0)  -->
<svg version="1.1" id="Layer_1" xmlns="http://www.w3.org/2000/svg" xmlns:xlink="http://www.w3.org/1999/xlink" x="0px" y="0px"
	 viewBox="0 0 341.9 478.9" style="enable-background:new 0 0 341.9 478.9;" xml:space="preserve">
<g>
	<path d="M162.3,404.7c0-58.2,47.2-105.4,105.4-105.4c14.8,0,28.9,3.1,41.7,8.6c-1.5-8.4-3.2-16.8-5.2-25.1
		c-5.1-21.8-21.4-39.2-42.7-45.8l-37.7-11.7c-12.7-3.9-22.2-14.3-25.1-27c10.7-8.8,19.2-20.9,25.1-33.2c2.6-5.3,4.4-10.9,5.9-16.6
		c6.1-1.8,10.9-6.9,11.9-13.5l3.3-21.4c1-6.7-2.2-13.1-7.6-16.6c6.8-9.4,9.3-22.1,5.4-34.6c-3.8-12.3-12.8-21.3-23.6-25.3
		C213,15.7,193.3,0,169.9,0C159,0,149,3.4,140.7,9.2c-16.4-3.3-33.9,0.4-47.5,11.6C71.1,39.1,66.6,70.9,81.3,95.6
		c-7,2.8-11.5,10.2-10.3,18l3.3,21.4c1.1,6.9,6.3,12.2,12.7,13.7c1.4,5.6,3.3,11.1,5.8,16.3c6,12.6,14.7,24.9,25.7,33.7
		c-3.1,12.5-12.4,22.7-25,26.6L55.7,237c-21.3,6.6-37.6,24-42.7,45.8c-5.6,23.6-9.4,47.7-11.6,71.9c-2.1,23.2-3.7,50,8.1,71.1
		c16.1,29,56.8,29,85.5,32.2c21.1,2.3,42.2,3.6,63.3,3.7v0c0.1,0,0.2,0,0.4,0c0.1,0,0.2,0,0.4,0v0c6.5,0,13.1-0.2,19.7-0.4
		C168.3,444.8,162.3,425.5,162.3,404.7L162.3,404.7z"/>
	<path d="M267.7,330.5c-41,0-74.2,33.2-74.2,74.2c0,41,33.2,74.2,74.2,74.2c41,0,74.2-33.2,74.2-74.2
		C341.9,363.7,308.7,330.5,267.7,330.5L267.7,330.5z M307.6,417.1h-79.7c-6.8,0-12.3-5.5-12.3-12.3c0-6.8,5.5-12.3,12.3-12.3h79.7
		c6.8,0,12.3,5.5,12.3,12.3C319.9,411.5,314.4,417.1,307.6,417.1z"/>
</g>
</svg>
