<?xml version="1.0" encoding="utf-8"?>
<!-- Generator: Adobe Illustrator 19.0.0, SVG Export Plug-In . SVG Version: 6.00 Build 0)  -->
<svg version="1.1" id="Layer_1" xmlns="http://www.w3.org/2000/svg" xmlns:xlink="http://www.w3.org/1999/xlink" x="0px" y="0px"
	 viewBox="0 0 150 150" style="enable-background:new 0 0 150 150;" xml:space="preserve">
<g>
	<path id="XMLID_2_" d="M140.3,75c0-1.9-0.7-3.7-2-4.9l-24.6-26.3c-2.7-2.8-6.8-2.8-9.5,0c-2.7,2.8-2.7,7.2,0,10.1l13.3,14.1H51.6
		C48,67.9,45,71.1,45,75s3,7.1,6.6,7.1h66.1l-13.3,14.1c-2.7,2.8-2.7,7.2,0,10.1c1.3,1.4,3,2.1,4.6,2.1s3.3-0.7,4.6-2.1l24.6-26.1
		C139.6,78.7,140.3,76.9,140.3,75z"/>
	<path id="XMLID_1_" d="M34.7,32.6h41.8c3.7,0,6.6-3.2,6.6-7.1s-3-7.1-6.6-7.1H34.7c-13.5,0-24.6,11.8-24.6,26.1v60.5
		c0,14.5,11.1,26.3,24.6,26.3h41.8c3.7,0,6.6-3.2,6.6-7.1s-3-7.1-6.6-7.1H34.7c-6.3,0-11.3-5.5-11.3-12V44.6
		C23.4,38.1,28.5,32.6,34.7,32.6z"/>
</g>
</svg>
