<?xml version="1.0" encoding="utf-8"?>
<!-- Generator: Adobe Illustrator 19.0.0, SVG Export Plug-In . SVG Version: 6.00 Build 0)  -->
<svg version="1.1" id="Layer_1" xmlns="http://www.w3.org/2000/svg" xmlns:xlink="http://www.w3.org/1999/xlink" x="0px" y="0px"
	 viewBox="0 0 150 150" style="enable-background:new 0 0 150 150;" xml:space="preserve">
<path id="XMLID_47_" d="M47.5,46.8h64.8L94.7,64.4c-1.8,1.8-1.8,4.7,0,6.5c0.9,0.9,2.1,1.3,3.2,1.3c1.2,0,2.3-0.4,3.2-1.3l25.4-25.4
	c0.2-0.2,0.4-0.4,0.6-0.7c0-0.1,0.1-0.1,0.1-0.2c0.1-0.2,0.2-0.4,0.3-0.6c0-0.1,0.1-0.2,0.1-0.3c0.1-0.2,0.1-0.4,0.2-0.6
	c0.1-0.3,0.1-0.6,0.1-0.9s0-0.6-0.1-0.9c0-0.2-0.1-0.4-0.2-0.6c0-0.1-0.1-0.2-0.1-0.3c-0.1-0.2-0.2-0.4-0.3-0.6
	c0-0.1-0.1-0.1-0.1-0.2c-0.2-0.2-0.4-0.5-0.6-0.7l-25.4-25.4c-1.8-1.8-4.7-1.8-6.5,0c-1.8,1.8-1.8,4.7,0,6.5l17.6,17.6H47.5
	c-20,0-36.2,16.2-36.2,36.2c0,2.5,2,4.6,4.6,4.6s4.6-2,4.6-4.6C20.4,58.9,32.6,46.8,47.5,46.8z M133.4,72.2c-2.5,0-4.6,2-4.6,4.6
	c0,14.9-12.1,27.1-27.1,27.1H37l17.6-17.6c1.8-1.8,1.8-4.7,0-6.5c-1.8-1.8-4.7-1.8-6.5,0l-25.4,25.4c-0.2,0.2-0.4,0.4-0.6,0.7
	c0,0.1-0.1,0.1-0.1,0.2c-0.1,0.2-0.2,0.4-0.3,0.6c0,0.1-0.1,0.2-0.1,0.3c-0.1,0.2-0.1,0.4-0.2,0.6c-0.1,0.3-0.1,0.6-0.1,0.9
	s0,0.6,0.1,0.9c0,0.2,0.1,0.4,0.2,0.6c0,0.1,0,0.2,0.1,0.3c0.1,0.2,0.2,0.4,0.3,0.6c0,0.1,0.1,0.1,0.1,0.2c0.2,0.2,0.4,0.5,0.6,0.7
	L48.1,137c0.9,0.9,2.1,1.3,3.2,1.3c1.2,0,2.3-0.4,3.2-1.3c1.8-1.8,1.8-4.7,0-6.5L37,113h64.8c20,0,36.2-16.2,36.2-36.2
	C138,74.2,135.9,72.2,133.4,72.2z"/>
</svg>
