<?xml version="1.0" encoding="utf-8"?>
<!-- Generator: Adobe Illustrator 19.0.0, SVG Export Plug-In . SVG Version: 6.00 Build 0)  -->
<svg version="1.1" id="Layer_1" xmlns="http://www.w3.org/2000/svg" xmlns:xlink="http://www.w3.org/1999/xlink" x="0px" y="0px"
	 viewBox="0 0 150 150" style="enable-background:new 0 0 150 150;" xml:space="preserve">
<g id="XMLID_6_" transform="translate(0,-952.36218)">
	<path id="XMLID_7_" d="M74,964.9c-18.9,0-34.2,15.3-34.2,34.2v16.4h-1.5c-5.7,0-10.4,4.7-10.4,10.4v53.5c0,5.7,4.7,10.4,10.4,10.4
		h71.4c5.7,0,10.4-4.7,10.4-10.4v-53.5c0-5.7-4.7-10.4-10.4-10.4h-61v-16.4c0-14.1,11.2-25.3,25.3-25.3s25.3,11.2,25.3,25.3v3
		c0,2.4,2.1,4.5,4.5,4.5s4.5-2.2,4.5-4.5v-3C108.2,980.2,92.9,964.9,74,964.9z M38.3,1024.4h71.4c0.9,0,1.5,0.6,1.5,1.5v53.5
		c0,0.9-0.6,1.5-1.5,1.5H38.3c-0.9,0-1.5-0.6-1.5-1.5v-53.5C36.8,1025,37.4,1024.4,38.3,1024.4z M74,1033.3c-7.3,0-13.4,6-13.4,13.4
		c0,3,1.2,5.7,3,7.9v6.9c0,5.7,4.7,10.4,10.4,10.4s10.4-4.7,10.4-10.4v-6.9c1.7-2.3,3-4.9,3-7.9C87.4,1039.4,81.3,1033.3,74,1033.3z
		 M74,1042.2c2.5,0,4.5,1.9,4.5,4.5c0,1.3-0.6,2.5-1.5,3.3c-1,0.9-1.5,2.1-1.5,3.3v8.2c0,0.9-0.6,1.5-1.5,1.5s-1.5-0.6-1.5-1.5v-8.2
		c0-1.3-0.5-2.5-1.5-3.3c-0.9-0.8-1.5-2-1.5-3.3C69.5,1044.2,71.5,1042.2,74,1042.2z"/>
</g>
</svg>
