<?xml version="1.0" encoding="utf-8"?>
<!-- Generator: Adobe Illustrator 19.0.0, SVG Export Plug-In . SVG Version: 6.00 Build 0)  -->
<svg version="1.1" id="Layer_1" xmlns="http://www.w3.org/2000/svg" xmlns:xlink="http://www.w3.org/1999/xlink" x="0px" y="0px"
	 viewBox="0 0 150 150" style="enable-background:new 0 0 150 150;" xml:space="preserve">
<g id="XMLID_50_" transform="translate(0,-952.36218)">
	<path id="XMLID_52_" d="M74.7,962.7c-35.8,0-65,29.2-65,65c0,35.8,29.2,65,65,65c35.8,0,65-29.2,65-65
		C139.7,991.9,110.5,962.7,74.7,962.7z M74.7,976.8c28.2,0,50.9,22.7,50.9,50.9c0,28.2-22.7,50.9-50.9,50.9
		c-28.2,0-50.9-22.7-50.9-50.9C23.8,999.5,46.5,976.8,74.7,976.8z M74.7,996.8l-4.8,4.4l-36.7,33.9l9.6,10.4l31.9-29.5l31.9,29.5
		l9.6-10.4l-36.7-33.9L74.7,996.8z"/>
</g>
</svg>
