<svg xmlns="http://www.w3.org/2000/svg" width="14.853" height="14.853" viewBox="0 0 14.853 14.853">
  <g id="reason" transform="translate(-2.319 -16)">
    <g id="Group_33" data-name="Group 33" transform="translate(2.319 16)">
      <path id="Path_53" data-name="Path 53" d="M152.248,177.485h.99a.248.248,0,0,0,.248-.248v-.99a.248.248,0,0,0-.248-.248h-.99a.248.248,0,0,0-.248.248v.99A.248.248,0,0,0,152.248,177.485Zm.248-.99h.5v.5h-.5Z" transform="translate(-147.792 -171.049)"/>
      <path id="Path_54" data-name="Path 54" d="M72.248,177.485h.99a.248.248,0,0,0,.248-.248v-.99a.248.248,0,0,0-.248-.248h-.99a.248.248,0,0,0-.248.248v.99A.248.248,0,0,0,72.248,177.485Zm.248-.99h.5v.5h-.5Z" transform="translate(-70.267 -171.049)"/>
      <path id="Path_55" data-name="Path 55" d="M232.248,177.485h.99a.248.248,0,0,0,.248-.248v-.99a.248.248,0,0,0-.248-.248h-.99a.248.248,0,0,0-.248.248v.99A.248.248,0,0,0,232.248,177.485Zm.248-.99h.5v.5h-.5Z" transform="translate(-225.316 -171.049)"/>
      <path id="Path_56" data-name="Path 56" d="M392.248,177.485h.99a.248.248,0,0,0,.248-.248v-.99a.248.248,0,0,0-.248-.248h-.99a.248.248,0,0,0-.248.248v.99A.248.248,0,0,0,392.248,177.485Zm.248-.99h.5v.5h-.5Z" transform="translate(-380.365 -171.049)"/>
      <path id="Path_57" data-name="Path 57" d="M312.248,177.485h.99a.248.248,0,0,0,.248-.248v-.99a.248.248,0,0,0-.248-.248h-.99a.248.248,0,0,0-.248.248v.99A.248.248,0,0,0,312.248,177.485Zm.248-.99h.5v.5h-.5Z" transform="translate(-302.841 -171.049)"/>
      <path id="Path_58" data-name="Path 58" d="M152.248,249.485h.99a.248.248,0,0,0,.248-.248v-.99a.248.248,0,0,0-.248-.248h-.99a.248.248,0,0,0-.248.248v.99A.248.248,0,0,0,152.248,249.485Zm.248-.99h.5v.5h-.5Z" transform="translate(-147.792 -240.821)"/>
      <path id="Path_59" data-name="Path 59" d="M72.248,249.485h.99a.248.248,0,0,0,.248-.248v-.99a.248.248,0,0,0-.248-.248h-.99a.248.248,0,0,0-.248.248v.99A.248.248,0,0,0,72.248,249.485Zm.248-.99h.5v.5h-.5Z" transform="translate(-70.267 -240.821)"/>
      <path id="Path_60" data-name="Path 60" d="M232.248,249.485h.99a.248.248,0,0,0,.248-.248v-.99a.248.248,0,0,0-.248-.248h-.99a.248.248,0,0,0-.248.248v.99A.248.248,0,0,0,232.248,249.485Zm.248-.99h.5v.5h-.5Z" transform="translate(-225.316 -240.821)"/>
      <path id="Path_61" data-name="Path 61" d="M392.248,249.485h.99a.248.248,0,0,0,.248-.248v-.99a.248.248,0,0,0-.248-.248h-.99a.248.248,0,0,0-.248.248v.99A.248.248,0,0,0,392.248,249.485Zm.248-.99h.5v.5h-.5Z" transform="translate(-380.365 -240.821)"/>
      <path id="Path_62" data-name="Path 62" d="M312.248,249.485h.99a.248.248,0,0,0,.248-.248v-.99a.248.248,0,0,0-.248-.248h-.99a.248.248,0,0,0-.248.248v.99A.248.248,0,0,0,312.248,249.485Zm.248-.99h.5v.5h-.5Z" transform="translate(-302.841 -240.821)"/>
      <path id="Path_63" data-name="Path 63" d="M30.11,16.99h-.743v-.248a.743.743,0,1,0-1.485,0v.248H25.9v-.248a.743.743,0,0,0-1.485,0v.248h-1.98v-.248a.743.743,0,1,0-1.485,0v.248h-1.98v-.248a.743.743,0,0,0-1.485,0v.248h-.743a.744.744,0,0,0-.743.743V30.11a.744.744,0,0,0,.743.743H30.11a.744.744,0,0,0,.743-.743V17.733A.744.744,0,0,0,30.11,16.99Zm-1.733-.248a.248.248,0,0,1,.5,0v.99a.248.248,0,0,1-.5,0Zm-3.466,0a.248.248,0,0,1,.5,0v.99a.248.248,0,0,1-.5,0Zm-3.466,0a.248.248,0,0,1,.5,0v.99a.248.248,0,0,1-.5,0Zm-3.466,0a.248.248,0,0,1,.5,0v.99a.248.248,0,1,1-.5,0ZM30.358,30.11a.248.248,0,0,1-.248.248H16.743a.248.248,0,0,1-.248-.248v-10.4H30.358Zm0-10.892H16.5V17.733a.248.248,0,0,1,.248-.248h.743v.248a.743.743,0,1,0,1.485,0v-.248h1.98v.248a.743.743,0,1,0,1.485,0v-.248h1.98v.248a.743.743,0,1,0,1.485,0v-.248h1.98v.248a.743.743,0,1,0,1.485,0v-.248h.743a.248.248,0,0,1,.248.248Z" transform="translate(-16 -16)"/>
      <path id="Path_64" data-name="Path 64" d="M392.072,393.413a.248.248,0,0,0,.35,0l.32-.32.32.32a.248.248,0,0,0,.35-.35l-.32-.32.32-.32a.248.248,0,0,0-.35-.35l-.32.32-.32-.32a.248.248,0,0,0-.35.35l.32.32-.32.32A.248.248,0,0,0,392.072,393.413Z" transform="translate(-380.365 -380.365)"/>
      <path id="Path_65" data-name="Path 65" d="M312.072,393.413a.248.248,0,0,0,.35,0l.32-.32.32.32a.248.248,0,0,0,.35-.35l-.32-.32.32-.32a.248.248,0,0,0-.35-.35l-.32.32-.32-.32a.248.248,0,0,0-.35.35l.32.32-.32.32A.248.248,0,0,0,312.072,393.413Z" transform="translate(-302.84 -380.365)"/>
      <path id="Path_66" data-name="Path 66" d="M232.072,393.413a.248.248,0,0,0,.35,0l.32-.32.32.32a.248.248,0,0,0,.35-.35l-.32-.32.32-.32a.248.248,0,0,0-.35-.35l-.32.32-.32-.32a.248.248,0,0,0-.35.35l.32.32-.32.32A.248.248,0,0,0,232.072,393.413Z" transform="translate(-225.316 -380.365)"/>
      <path id="Path_67" data-name="Path 67" d="M152.072,393.413a.248.248,0,0,0,.35,0l.32-.32.32.32a.248.248,0,0,0,.35-.35l-.32-.32.32-.32a.248.248,0,0,0-.35-.35l-.32.32-.32-.32a.248.248,0,0,0-.35.35l.32.32-.32.32A.248.248,0,0,0,152.072,393.413Z" transform="translate(-147.791 -380.365)"/>
      <path id="Path_68" data-name="Path 68" d="M72.072,393.413a.248.248,0,0,0,.35,0l.32-.32.32.32a.248.248,0,0,0,.35-.35l-.32-.32.32-.32a.248.248,0,0,0-.35-.35l-.32.32-.32-.32a.248.248,0,0,0-.35.35l.32.32-.32.32A.248.248,0,0,0,72.072,393.413Z" transform="translate(-70.267 -380.365)"/>
      <path id="Path_69" data-name="Path 69" d="M392.072,321.413a.248.248,0,0,0,.35,0l.32-.32.32.32a.248.248,0,0,0,.35-.35l-.32-.32.32-.32a.248.248,0,0,0-.35-.35l-.32.32-.32-.32a.248.248,0,0,0-.35.35l.32.32-.32.32A.248.248,0,0,0,392.072,321.413Z" transform="translate(-380.365 -310.593)"/>
      <path id="Path_70" data-name="Path 70" d="M312.072,321.413a.248.248,0,0,0,.35,0l.32-.32.32.32a.248.248,0,0,0,.35-.35l-.32-.32.32-.32a.248.248,0,0,0-.35-.35l-.32.32-.32-.32a.248.248,0,0,0-.35.35l.32.32-.32.32A.248.248,0,0,0,312.072,321.413Z" transform="translate(-302.84 -310.593)"/>
      <path id="Path_71" data-name="Path 71" d="M232.072,321.413a.248.248,0,0,0,.35,0l.32-.32.32.32a.248.248,0,0,0,.35-.35l-.32-.32.32-.32a.248.248,0,0,0-.35-.35l-.32.32-.32-.32a.248.248,0,0,0-.35.35l.32.32-.32.32A.248.248,0,0,0,232.072,321.413Z" transform="translate(-225.316 -310.593)"/>
      <path id="Path_72" data-name="Path 72" d="M152.072,321.413a.248.248,0,0,0,.35,0l.32-.32.32.32a.248.248,0,0,0,.35-.35l-.32-.32.32-.32a.248.248,0,0,0-.35-.35l-.32.32-.32-.32a.248.248,0,0,0-.35.35l.32.32-.32.32A.248.248,0,0,0,152.072,321.413Z" transform="translate(-147.791 -310.593)"/>
      <path id="Path_73" data-name="Path 73" d="M72.072,321.413a.248.248,0,0,0,.35,0l.32-.32.32.32a.248.248,0,0,0,.35-.35l-.32-.32.32-.32a.248.248,0,0,0-.35-.35l-.32.32-.32-.32a.248.248,0,0,0-.35.35l.32.32-.32.32A.248.248,0,0,0,72.072,321.413Z" transform="translate(-70.267 -310.593)"/>
    </g>
  </g>
</svg>
