<?xml version="1.0" encoding="utf-8"?>
<!-- Generator: Adobe Illustrator 19.0.0, SVG Export Plug-In . SVG Version: 6.00 Build 0)  -->
<svg version="1.1" id="Layer_1" xmlns="http://www.w3.org/2000/svg" xmlns:xlink="http://www.w3.org/1999/xlink" x="0px" y="0px"
	 viewBox="0 0 150 150" style="enable-background:new 0 0 150 150;" xml:space="preserve">
<g transform="translate(0,-290.64999)">
	<path d="M122.1,305.3c-3.7,0.1-6.7,3.1-6.6,6.8c0,0,0,0,0,0v8.8c-10.9-9.8-25.2-15.5-40.3-15.5c-33.3,0-60.4,27.2-60.4,60.5
		c-0.3,3.7,2.4,6.9,6.1,7.3s6.9-2.4,7.3-6.1c0-0.4,0-0.8,0-1.2c0-26,21-47,47-47c12.4,0,24.1,5,32.8,13.4H95.3
		c-3.7-0.1-6.8,2.9-6.9,6.6s2.9,6.8,6.6,6.9c0.1,0,0.2,0,0.3,0h26.9c3.7,0,6.7-3,6.7-6.7v-26.9c0.1-3.7-2.9-6.8-6.6-6.8
		C122.3,305.3,122.2,305.3,122.1,305.3L122.1,305.3z M128.8,358.9c-3.7,0-6.7,3.1-6.6,6.8c0,0,0,0,0,0.1c0,26-21,47-47,47
		c-12.5,0-24.1-5-32.8-13.4H55c3.7,0,6.7-3,6.7-6.7c0-3.7-3-6.7-6.7-6.7H28.2c-3.7,0-6.7,3-6.7,6.7c0,0,0,0,0,0v26.9
		c-0.1,3.7,2.9,6.8,6.6,6.9s6.8-2.9,6.9-6.6c0-0.1,0-0.2,0-0.3v-8.7c10.9,9.8,25.2,15.5,40.3,15.5c33.3,0,60.4-27.1,60.4-60.4
		c0.1-3.7-2.9-6.8-6.6-6.8C129,358.9,128.9,358.9,128.8,358.9L128.8,358.9z"/>
</g>
</svg>
