<?xml version="1.0" encoding="utf-8"?>
<!-- Generator: Adobe Illustrator 19.0.0, SVG Export Plug-In . SVG Version: 6.00 Build 0)  -->
<svg version="1.1" id="Layer_1" xmlns="http://www.w3.org/2000/svg" xmlns:xlink="http://www.w3.org/1999/xlink" x="0px" y="0px"
	 viewBox="0 0 150 150" style="enable-background:new 0 0 150 150;" xml:space="preserve">
<path id="XMLID_2_" d="M51.9,52.9H29.9c-7.3,0-13.2,5.9-13.2,13.2v57.4c0,7.3,5.9,13.2,13.2,13.2h88.3c7.3,0,13.2-5.9,13.2-13.2
	V66.2c0-7.3-5.9-13.2-13.2-13.2H96.1c-2.4,0-4.4,2-4.4,4.4s2,4.4,4.4,4.4h22.1c2.4,0,4.4,2,4.4,4.4v57.4c0,2.4-2,4.4-4.4,4.4H29.9
	c-2.4,0-4.4-2-4.4-4.4V66.2c0-2.4,2-4.4,4.4-4.4h22.1c2.4,0,4.4-2,4.4-4.4S54.4,52.9,51.9,52.9z"/>
<path id="XMLID_1_" d="M74,13.2c-2.4,0-4.4,2-4.4,4.4v73.2L55.1,76.3c-1.8-1.7-4.5-1.6-6.2,0.1c-1.7,1.7-1.7,4.4,0,6.1l22.1,22.1
	c1.7,1.7,4.5,1.7,6.2,0c0,0,0,0,0,0l22.1-22.1c1.7-1.8,1.6-4.5-0.1-6.2c-1.7-1.7-4.4-1.7-6.1,0L78.4,90.8V17.6
	C78.4,15.2,76.4,13.2,74,13.2z"/>
</svg>
