<?xml version="1.0" encoding="utf-8"?>
<!-- Generator: Adobe Illustrator 19.0.0, SVG Export Plug-In . SVG Version: 6.00 Build 0)  -->
<svg version="1.1" id="Layer_1" xmlns="http://www.w3.org/2000/svg" xmlns:xlink="http://www.w3.org/1999/xlink" x="0px" y="0px"
	 viewBox="0 0 150 150" style="enable-background:new 0 0 150 150;" xml:space="preserve">
<g>
	<g>
		<path d="M135.6,30.1H14.4c-3.7,0-6.7,3-6.7,6.7v76.3c0,3.7,3,6.7,6.7,6.7h121.1c3.7,0,6.7-3,6.7-6.7V36.9
			C142.3,33.1,139.3,30.1,135.6,30.1z M137.8,113.1c0,1.2-1,2.2-2.2,2.2H77.2V43.6c0-1.2-1-2.2-2.2-2.2s-2.2,1-2.2,2.2v71.8H14.4
			c-1.2,0-2.2-1-2.2-2.2V36.9c0-1.2,1-2.2,2.2-2.2h121.1c1.2,0,2.2,1,2.2,2.2V113.1z"/>
		<path d="M41.4,77.2h4.5c6.2,0,11.2-5,11.2-11.2v-9c0-6.2-5-11.2-11.2-11.2h-4.5c-6.2,0-11.2,5-11.2,11.2v9
			C30.1,72.2,35.2,77.2,41.4,77.2z M34.6,57.1c0-3.7,3-6.7,6.7-6.7h4.5c3.7,0,6.7,3,6.7,6.7v9c0,3.7-3,6.7-6.7,6.7h-4.5
			c-3.7,0-6.7-3-6.7-6.7V57.1z"/>
		<path id="XMLID_5_" d="M53.1,81.7h-19c-6,0.2-10.8,5.2-10.7,11.2v11.2c0,1.2,1,2.2,2.2,2.2c1.2,0,2.2-1,2.2-2.2V92.9
			c-0.1-3.6,2.6-6.6,6.2-6.7h19c3.6,0.2,6.3,3.2,6.2,6.7v9H51c-1.2,0-2.2,1-2.2,2.2c0,1.2,1,2.2,2.2,2.2h10.6c1.2,0,2.2-1,2.2-2.2
			V92.9C63.9,86.9,59.1,81.9,53.1,81.7z"/>
		<path id="XMLID_4_" d="M126.6,48.1H86.2c-1.2,0-2.2,1-2.2,2.2s1,2.2,2.2,2.2h40.4c1.2,0,2.2-1,2.2-2.2S127.8,48.1,126.6,48.1z"/>
		<path id="XMLID_3_" d="M126.6,61.5H86.2c-1.2,0-2.2,1-2.2,2.2s1,2.2,2.2,2.2h40.4c1.2,0,2.2-1,2.2-2.2S127.8,61.5,126.6,61.5z"/>
		<path id="XMLID_2_" d="M126.6,75H86.2C85,75,84,76,84,77.2s1,2.2,2.2,2.2h40.4c1.2,0,2.2-1,2.2-2.2S127.8,75,126.6,75z"/>
		<path id="XMLID_1_" d="M126.6,88.5h-20.2c-1.2,0-2.2,1-2.2,2.2c0,1.2,1,2.2,2.2,2.2h20.2c1.2,0,2.2-1,2.2-2.2
			C128.8,89.5,127.8,88.5,126.6,88.5z"/>
	</g>
</g>
</svg>
