<?xml version="1.0" encoding="utf-8"?>
<!-- Generator: Adobe Illustrator 19.0.0, SVG Export Plug-In . SVG Version: 6.00 Build 0)  -->
<svg version="1.1" id="Layer_1" xmlns="http://www.w3.org/2000/svg" xmlns:xlink="http://www.w3.org/1999/xlink" x="0px" y="0px"
	 viewBox="0 0 150 150" style="enable-background:new 0 0 150 150;" xml:space="preserve">
<path id="XMLID_17_" d="M100.8,33.9H66.1v13h34.7V33.9z M98.2,44.3H68.7v-7.8h29.5V44.3z M107.4,52.9H59.6c-0.9,0-1.6,0.7-1.6,1.6
	c0,0.9,0.7,1.6,1.6,1.6h47.7c0.9,0,1.6-0.7,1.6-1.6C109,53.6,108.3,52.9,107.4,52.9z M107.4,61.5H59.6c-0.9,0-1.6,0.7-1.6,1.6
	s0.7,1.6,1.6,1.6h47.7c0.9,0,1.6-0.7,1.6-1.6S108.3,61.5,107.4,61.5z M98.7,68.4H68.3c-0.7,0-1.3,0.6-1.3,1.3s0.6,1.3,1.3,1.3h30.4
	c0.7,0,1.3-0.6,1.3-1.3S99.4,68.4,98.7,68.4z M117.2,10.5H25.6v14.8c-0.1,0-0.3,0.1-0.4,0.1c-3.2,1-4.9,2.3-4.9,4.1
	c0,1.8,1.6,3.2,4.9,4.1c0.1,0,0.3,0,0.4,0v4.6c-0.1,0-0.3,0.1-0.4,0.1c-3.2,1-4.9,2.3-4.9,4.1c0,1.8,1.6,3.2,4.9,4.1
	c0.1,0,0.3,0,0.4,0v4.6c-0.1,0-0.3,0.1-0.4,0.1c-3.2,1-4.9,2.3-4.9,4.1c0,1.8,1.6,3.2,4.9,4.1c0.1,0,0.3,0,0.4,0v4.6
	c-0.1,0-0.3,0.1-0.4,0.1c-3.2,1-4.9,2.3-4.9,4.1c0,1.8,1.6,3.2,4.9,4.1c0.1,0,0.3,0,0.4,0v4.6c-0.1,0-0.3,0.1-0.4,0.1
	c-3.2,1-4.9,2.3-4.9,4.1c0,1.8,1.6,3.2,4.9,4.1c0.1,0,0.3,0,0.4,0v4.6c-0.1,0-0.3,0.1-0.4,0.1c-3.2,1-4.9,2.3-4.9,4.1
	c0,1.8,1.6,3.2,4.9,4.1c0.1,0,0.3,0,0.4,0v4.6c-0.1,0-0.3,0.1-0.4,0.1c-3.2,1-4.9,2.3-4.9,4.1c0,1.8,1.6,3.2,4.9,4.1
	c0.1,0,0.3,0,0.4,0v4.6c-0.1,0-0.3,0.1-0.4,0.1c-3.2,1-4.9,2.3-4.9,4.1c0,1.8,1.6,3.2,4.9,4.1c0.1,0,0.3,0,0.4,0v14.6h91.7
	c3.6,0,6.5-2.9,6.5-6.5V17.1C123.8,13.5,120.8,10.5,117.2,10.5z M25.6,121.8c-1.5-0.5-2.1-0.9-2.2-1.1c0.2-0.2,0.8-0.7,2.2-1.1
	V121.8z M25.6,108.8c-1.5-0.5-2.1-0.9-2.2-1.1c0.2-0.2,0.8-0.7,2.2-1.1V108.8z M25.6,95.8c-1.5-0.5-2.1-0.9-2.2-1.1
	c0.2-0.2,0.8-0.7,2.2-1.1V95.8z M25.6,82.8c-1.5-0.5-2.1-0.9-2.2-1.1c0.2-0.2,0.8-0.7,2.2-1.1V82.8z M25.6,69.8
	c-1.5-0.5-2.1-0.9-2.2-1.1c0.2-0.2,0.8-0.7,2.2-1.1V69.8z M25.6,56.7c-1.5-0.5-2.1-0.9-2.2-1.1c0.2-0.2,0.8-0.7,2.2-1.1V56.7z
	 M25.6,43.7c-1.5-0.5-2.1-0.9-2.2-1.1c0.2-0.2,0.8-0.7,2.2-1.1V43.7z M25.6,30.7c-1.5-0.5-2.1-0.9-2.2-1.1c0.2-0.2,0.8-0.7,2.2-1.1
	V30.7z M119.4,132.9c0,1.2-1,2.2-2.2,2.2H36.9v-16.7c2.5,0.1,4.8,0.5,6.6,1c1.8,0.5,2.5,1,2.7,1.3c-0.2,0.2-0.9,0.7-2.7,1.3
	c-0.8,0.2-1.2,1.1-1,1.9c0.2,0.7,0.8,1.1,1.4,1.1c0.1,0,0.3,0,0.4-0.1c3.2-1,4.9-2.3,4.9-4.1c0-1.8-1.6-3.2-4.9-4.1
	c-2.1-0.6-4.7-1-7.5-1.1v-10c2.5,0.1,4.8,0.5,6.6,1c1.8,0.5,2.5,1,2.7,1.3c-0.2,0.2-0.9,0.7-2.7,1.3c-0.8,0.2-1.2,1.1-1,1.9
	c0.2,0.7,0.8,1.1,1.4,1.1c0.1,0,0.3,0,0.4-0.1c3.2-1,4.9-2.3,4.9-4.1c0-1.8-1.6-3.2-4.9-4.1c-2.1-0.6-4.7-1-7.5-1.1v-10
	c2.5,0.1,4.8,0.5,6.6,1c1.8,0.5,2.5,1,2.7,1.3c-0.2,0.2-0.9,0.7-2.7,1.3c-0.8,0.2-1.2,1.1-1,1.9c0.2,0.7,0.8,1.1,1.4,1.1
	c0.1,0,0.3,0,0.4-0.1c3.2-1,4.9-2.3,4.9-4.1c0-1.8-1.6-3.2-4.9-4.1c-2.1-0.6-4.7-1-7.5-1.1v-10c2.5,0.1,4.8,0.5,6.6,1
	c1.8,0.5,2.5,1,2.7,1.3c-0.2,0.2-0.9,0.7-2.7,1.3c-0.8,0.2-1.2,1.1-1,1.9c0.2,0.7,0.8,1.1,1.4,1.1c0.1,0,0.3,0,0.4-0.1
	c3.2-1,4.9-2.3,4.9-4.1c0-1.8-1.6-3.2-4.9-4.1c-2.1-0.6-4.7-1-7.5-1.1v-10c2.5,0.1,4.8,0.5,6.6,1c1.8,0.5,2.5,1,2.7,1.3
	c-0.2,0.2-0.9,0.7-2.7,1.3c-0.8,0.2-1.2,1.1-1,1.9c0.2,0.7,0.8,1.1,1.4,1.1c0.1,0,0.3,0,0.4-0.1c3.2-1,4.9-2.3,4.9-4.1
	c0-1.8-1.6-3.2-4.9-4.1c-2.1-0.6-4.7-1-7.5-1.1v-10c2.5,0.1,4.8,0.5,6.6,1c1.8,0.5,2.5,1,2.7,1.3c-0.2,0.2-0.9,0.7-2.7,1.3
	c-0.8,0.2-1.2,1.1-1,1.9c0.2,0.7,0.8,1.1,1.4,1.1c0.1,0,0.3,0,0.4-0.1c3.2-1,4.9-2.3,4.9-4.1c0-1.8-1.6-3.2-4.9-4.1
	c-2.1-0.6-4.7-1-7.5-1.1v-10c2.5,0.1,4.8,0.5,6.6,1c1.8,0.5,2.5,1,2.7,1.3c-0.2,0.2-0.9,0.7-2.7,1.3c-0.8,0.2-1.2,1.1-1,1.9
	c0.2,0.7,0.8,1.1,1.4,1.1c0.1,0,0.3,0,0.4-0.1c3.2-1,4.9-2.3,4.9-4.1c0-1.8-1.6-3.2-4.9-4.1c-2.1-0.6-4.7-1-7.5-1.1v-10
	c2.5,0.1,4.8,0.5,6.6,1c1.8,0.5,2.5,1,2.7,1.3c-0.2,0.2-0.9,0.7-2.7,1.3c-0.8,0.2-1.2,1.1-1,1.9c0.2,0.7,0.8,1.1,1.4,1.1
	c0.1,0,0.3,0,0.4-0.1c3.2-1,4.9-2.3,4.9-4.1c0-1.8-1.6-3.2-4.9-4.1c-2.1-0.6-4.7-1-7.5-1.1v-9.4h80.3c1.2,0,2.2,1,2.2,2.2
	L119.4,132.9L119.4,132.9z"/>
</svg>
