<?xml version="1.0" encoding="utf-8"?>
<!-- Generator: Adobe Illustrator 19.0.0, SVG Export Plug-In . SVG Version: 6.00 Build 0)  -->
<svg version="1.1" id="Layer_1" xmlns="http://www.w3.org/2000/svg" xmlns:xlink="http://www.w3.org/1999/xlink" x="0px" y="0px"
	 viewBox="0 0 150 150" style="enable-background:new 0 0 150 150;" xml:space="preserve">
<g id="XMLID_3_">
	<path id="XMLID_46_" d="M12.6,87.5c5.1,25.4,24.9,45.2,50.2,50.2c1.4,0.3,2.7-0.6,2.9-2c0.3-1.4-0.6-2.7-2-2.9c0,0,0,0,0,0
		c-23.4-4.7-41.6-22.9-46.3-46.3c-0.3-1.4-1.6-2.2-2.9-2C13.2,84.9,12.3,86.2,12.6,87.5z"/>
	<path id="XMLID_45_" d="M137.4,87.5c0.3-1.4-0.6-2.7-2-2.9s-2.7,0.6-2.9,2c0,0,0,0,0,0c-4.7,23.4-22.9,41.6-46.3,46.3
		c-1.4,0.3-2.2,1.6-2,2.9c0.3,1.4,1.6,2.2,2.9,2c0,0,0,0,0,0C112.5,132.7,132.3,112.9,137.4,87.5z"/>
	<path id="XMLID_44_" d="M137.4,63.2c-5.1-25.4-24.9-45.2-50.2-50.2c-1.4-0.3-2.7,0.6-2.9,2c-0.3,1.3,0.6,2.6,2,2.9
		c23.4,4.7,41.6,22.9,46.3,46.3c0.3,1.4,1.6,2.2,2.9,2C136.8,65.9,137.7,64.5,137.4,63.2C137.4,63.2,137.4,63.2,137.4,63.2
		L137.4,63.2z"/>
	<path id="XMLID_42_" d="M62.8,12.9C37.5,18,17.6,37.8,12.6,63.2c-0.3,1.4,0.6,2.7,2,2.9c1.4,0.3,2.7-0.6,2.9-2c0,0,0,0,0,0
		c4.7-23.4,22.9-41.6,46.3-46.3c1.4-0.3,2.2-1.6,2-2.9C65.5,13.5,64.2,12.7,62.8,12.9z"/>
	<path id="XMLID_41_" d="M75,67.8c-4.1,0-7.5,3.4-7.5,7.5c0,4.1,3.4,7.5,7.5,7.5c4.1,0,7.4-3.3,7.5-7.4c-3.5,0.4-6.6-2-7-5.5
		c-0.1-0.7-0.1-1.4,0.1-2.1C75.4,67.9,75.2,67.8,75,67.8z"/>
	<path id="XMLID_7_" d="M52.5,75.3c0,12.4,10.1,22.5,22.5,22.5s22.5-10.1,22.5-22.5S87.4,52.9,75,52.9
		C62.6,52.9,52.5,62.9,52.5,75.3z M86.6,75.3C86.6,81.8,81.4,87,75,87c-6.4,0-11.6-5.2-11.6-11.6c0-6.4,5.2-11.6,11.6-11.6
		C81.4,63.7,86.6,68.9,86.6,75.3z"/>
	<path id="XMLID_4_" d="M31.3,75.3c0,24.1,19.6,43.7,43.7,43.7s43.7-19.6,43.7-43.7S99.1,31.6,75,31.6
		C50.8,31.6,31.3,51.2,31.3,75.3z M102.5,75.3c0,15.2-12.3,27.5-27.5,27.5S47.5,90.5,47.5,75.3S59.8,47.9,75,47.9
		C90.2,47.9,102.5,60.2,102.5,75.3z"/>
</g>
</svg>
