<?xml version="1.0" encoding="utf-8"?>
<!-- Generator: Adobe Illustrator 19.0.0, SVG Export Plug-In . SVG Version: 6.00 Build 0)  -->
<svg version="1.1" id="Layer_1" xmlns="http://www.w3.org/2000/svg" xmlns:xlink="http://www.w3.org/1999/xlink" x="0px" y="0px"
	 viewBox="0 0.2 150 150" style="enable-background:new 0 0.2 150 150;" xml:space="preserve">
<g>
	<g>
		<path d="M119.3,23.4H29.7c-5.6,0-10.2,4.6-10.2,10.2v89.6c0,5.6,4.6,10.2,10.2,10.2h89.6c5.6,0,10.2-4.6,10.2-10.2V33.5
			C129.5,27.9,124.9,23.4,119.3,23.4z M121.7,116.8c0,4.8-3.9,8.7-8.7,8.7H36c-4.8,0-8.7-3.9-8.7-8.7V39.9c0-4.8,3.9-8.7,8.7-8.7
			H113c4.8,0,8.7,3.9,8.7,8.7V116.8z"/>
	</g>
	<g>
		<path d="M104.5,60.9l-0.3-0.3c-2.4-2.4-6.2-2.4-8.6,0l-8.8,8.8c0,0,0,0,0,0L70.2,85.9L53.8,69.4c-2.4-2.4-6.2-2.4-8.6,0l-0.3,0.3
			c-2.4,2.4-2.4,6.2,0,8.6l21,21c2,2,5,2.3,7.3,1c0.6-0.3,1.1-0.7,1.5-1.1l21-21c0,0,0,0,0,0l8.8-8.8
			C106.9,67.1,106.9,63.3,104.5,60.9z"/>
		<path d="M49.9,30.9c0,3.2-2.4,5.8-5.3,5.8h-0.3c-2.9,0-5.3-2.6-5.3-5.8v-8c0-3.2,2.4-5.8,5.3-5.8h0.3c2.9,0,5.3,2.6,5.3,5.8V30.9z
			"/>
		<path d="M110,30.9c0,3.2-2.4,5.8-5.3,5.8h-0.3c-2.9,0-5.3-2.6-5.3-5.8v-8c0-3.2,2.4-5.8,5.3-5.8h0.3c2.9,0,5.3,2.6,5.3,5.8V30.9z"
			/>
		<path d="M79.6,30.9c0,3.2-2.4,5.8-5.3,5.8H74c-2.9,0-5.3-2.6-5.3-5.8v-8c0-3.2,2.4-5.8,5.3-5.8h0.3c2.9,0,5.3,2.6,5.3,5.8V30.9z"
			/>
	</g>
</g>
</svg>
