<?xml version="1.0" encoding="utf-8"?>
<!-- Generator: Adobe Illustrator 19.0.0, SVG Export Plug-In . SVG Version: 6.00 Build 0)  -->
<svg version="1.1" id="Layer_1" xmlns="http://www.w3.org/2000/svg" xmlns:xlink="http://www.w3.org/1999/xlink" x="0px" y="0px"
	 viewBox="-514 885.5 150 150" style="enable-background:new -514 885.5 150 150;" xml:space="preserve">
<title>TiNY2_BASICS</title>
<path d="M-439,901.5c-31.9,0-57.7,25.9-57.7,57.7s25.9,57.7,57.7,57.7s57.7-25.9,57.7-57.7S-407.1,901.5-439,901.5z M-470.8,998.5
	c16.2-17.6,43.6-18.7,61.1-2.5c0.9,0.8,1.7,1.6,2.5,2.5C-425.7,1013.6-452.3,1013.6-470.8,998.5z M-401.9,993.5
	c-18.9-20.5-50.9-21.7-71.3-2.8c-1,0.9-1.9,1.8-2.8,2.8c-19-20.5-17.7-52.4,2.7-71.4c20.5-19,52.4-17.7,71.4,2.7
	C-384,944.2-384,974.2-401.9,993.5z"/>
<path d="M-439,923.2c-14,0-25.3,11.3-25.3,25.3s11.3,25.3,25.3,25.3c14,0,25.3-11.3,25.3-25.3c0,0,0,0,0,0
	C-413.7,934.5-425.1,923.2-439,923.2z M-439,966.5c-10,0-18-8.1-18-18s8.1-18,18-18c10,0,18,8.1,18,18
	C-421,958.4-429,966.5-439,966.5z"/>
<image style="overflow:visible;" width="102" height="234" xlink:href=""  transform="matrix(0.5 0 0 0.5 -666 786.5)">
</image>
</svg>
