<?xml version="1.0" encoding="utf-8"?>
<!-- Generator: Adobe Illustrator 19.0.0, SVG Export Plug-In . SVG Version: 6.00 Build 0)  -->
<svg version="1.1" id="Layer_1" xmlns="http://www.w3.org/2000/svg" xmlns:xlink="http://www.w3.org/1999/xlink" x="0px" y="0px"
	 viewBox="-514 885.5 150 150" style="enable-background:new -514 885.5 150 150;" xml:space="preserve">
<g>
	<path d="M-398.3,903h-65.3c-3.5,0-6.4,2.9-6.4,6.4v10.5h-10.5c-3.5,0-6.4,2.9-6.4,6.4v85.3c0,3.5,2.9,6.4,6.4,6.4h65.3
		c3.5,0,6.4-2.9,6.4-6.4v-10.5h10.5c3.5,0,6.4-2.9,6.4-6.4v-85.3C-392,905.9-394.7,903-398.3,903z M-414,1011.5
		c0,0.6-0.5,1.1-1.2,1.1h-65.3c-0.6,0-1.1-0.5-1.1-1.1v-85.3c0-0.6,0.5-1.1,1.1-1.1h10.5v69.5c0,3.5,2.9,6.4,6.4,6.4h49.6V1011.5z
		 M-397.2,994.7c0,0.6-0.5,1.2-1.2,1.2h-65.2c-0.6,0-1.2-0.5-1.2-1.2v-85.3c0-0.6,0.5-1.2,1.2-1.2h65.3c0.6,0,1.2,0.5,1.2,1.2v85.3
		H-397.2z"/>
	<path d="M-411.6,964.3h-38.8c-1.5,0-2.7,1.2-2.7,2.7s1.2,2.7,2.7,2.7h38.8c1.5,0,2.7-1.2,2.7-2.7S-410.1,964.3-411.6,964.3z"/>
	<path d="M-411.6,980h-38.8c-1.5,0-2.7,1.2-2.7,2.7c0,1.5,1.2,2.7,2.7,2.7h38.8c1.5,0,2.7-1.2,2.7-2.7
		C-408.9,981.2-410.1,980-411.6,980z"/>
	<path d="M-411.6,948.7h-38.8c-1.5,0-2.7,1.2-2.7,2.7s1.2,2.7,2.7,2.7h38.8c1.5,0,2.7-1.2,2.7-2.7
		C-408.9,949.8-410.1,948.7-411.6,948.7z"/>
	<path d="M-445.8,938.7h4.7c0.6,0,1-0.5,1-1v-7.5c0-0.6-0.5-1-1-1h-4.7c-0.6,0-1,0.5-1,1v7.5C-446.7,938.2-446.3,938.7-445.8,938.7z
		"/>
	<path d="M-434,938.7h4.7c0.6,0,1-0.5,1-1v-12.9c0-0.6-0.5-1-1-1h-4.7c-0.6,0-1,0.5-1,1v12.8C-435,938.2-434.5,938.7-434,938.7z"/>
	<path d="M-422.3,938.7h4.7c0.6,0,1-0.5,1-1v-18.1c0-0.5-0.5-1-1-1h-4.7c-0.6,0-1,0.5-1,1v18.1
		C-423.3,938.2-422.8,938.7-422.3,938.7z"/>
</g>
</svg>
