<?xml version="1.0" encoding="utf-8"?>
<!-- Generator: Adobe Illustrator 19.0.0, SVG Export Plug-In . SVG Version: 6.00 Build 0)  -->
<svg version="1.1" id="Layer_1" xmlns="http://www.w3.org/2000/svg" xmlns:xlink="http://www.w3.org/1999/xlink" x="0px" y="0px"
	 viewBox="-524 885.8 150 150" style="enable-background:new -524 885.8 150 150;" xml:space="preserve">
<g>
	<path d="M-405.7,1007.5h-85.3c-2.5,0-4.7-1.2-6.2-3.5c-1.5-2.2-1.2-4.7,0-7l15-25.9c0.2-0.2,0.2-0.7,0.2-1v-25.4
		c0-15,10.2-27.9,24.9-31.4V910c0-4.7,3.7-8.5,8.5-8.5c4.7,0,8.5,3.7,8.5,8.5v3.2c14.5,3.5,24.9,16.5,24.9,31.4v25.2
		c0,0.2,0,0.7,0.2,1l15,25.9c1.2,2.2,1.2,4.7,0,7C-401.3,1006-403.2,1007.5-405.7,1007.5z M-448.4,906.5c-2,0-3.5,1.5-3.5,3.5v7.5
		l-2,0.2c-13.2,2.2-22.7,13.7-22.7,26.9v25.2c0,1.2-0.2,2.5-1,3.5l-15,25.9c-0.5,1-0.2,1.7,0,2c0.2,0.2,0.7,1,1.7,1h85.1
		c1,0,1.7-0.7,1.7-1c0.2-0.2,0.5-1.2,0-2l-15-25.9c-0.5-1-1-2.2-1-3.5v-25.2c0-13.5-9.5-24.7-22.7-26.9l-2-0.2V910
		C-444.9,908-446.4,906.5-448.4,906.5z"/>
	<path d="M-448.4,1020c-8.5,0-15.5-6.2-16.2-14.7l-0.2-2.7h32.7l-0.2,2.7C-432.9,1013.5-439.9,1020-448.4,1020z M-458.9,1007.5
		c1.5,4.5,5.7,7.5,10.5,7.5c4.7,0,9-3,10.5-7.5C-437.9,1007.5-458.9,1007.5-458.9,1007.5z"/>
	<path d="M-458.1,973.3h-21.5c-1.5,0-2.5-1-2.5-2.5c0-1.5,1-2.5,2.5-2.5h21.5c1.5,0,2.5,1,2.5,2.5
		C-455.6,972.4-456.6,973.3-458.1,973.3z"/>
	<circle cx="-447.7" cy="970.9" r="3"/>
</g>
</svg>
