<?xml version="1.0" encoding="utf-8"?>
<!-- Generator: Adobe Illustrator 19.0.0, SVG Export Plug-In . SVG Version: 6.00 Build 0)  -->
<svg version="1.1" id="Layer_1" xmlns="http://www.w3.org/2000/svg" xmlns:xlink="http://www.w3.org/1999/xlink" x="0px" y="0px"
	 viewBox="-514 885.5 150 150" style="enable-background:new -514 885.5 150 150;" xml:space="preserve">
<path d="M-403.9,945.4h-8.2v-17c0-14.8-12.1-26.9-26.9-26.9s-26.9,12.1-26.9,26.9v17h-8.2c-5.6,0-10.2,4.6-10.2,10.2v53.7
	c0,5.6,4.6,10.2,10.2,10.2h70.2c5.6,0,10.2-4.6,10.2-10.2v-53.7C-393.7,949.9-398.3,945.4-403.9,945.4z M-461.2,928.4
	c0-12.2,10-22.2,22.2-22.2s22.2,10,22.2,22.2v17h-44.4V928.4z M-398.4,1009.3c0,3-2.5,5.5-5.5,5.5h-70.2c-3,0-5.5-2.5-5.5-5.5v-53.7
	c0-3,2.5-5.5,5.5-5.5h70.2c3,0,5.5,2.5,5.5,5.5V1009.3z M-439,968.8c-4.4,0-7.9,3.6-7.9,7.9c0,3.5,2.4,6.5,5.6,7.5v11.1
	c0,1.3,1.1,2.4,2.4,2.4s2.4-1.1,2.4-2.4v-11.1c3.2-1,5.6-4,5.6-7.5C-431.1,972.3-434.6,968.8-439,968.8z M-439,979.9
	c-1.8,0-3.2-1.4-3.2-3.2s1.4-3.2,3.2-3.2s3.2,1.4,3.2,3.2S-437.2,979.9-439,979.9z"/>
</svg>
