<?xml version="1.0" encoding="utf-8"?>
<!-- Generator: Adobe Illustrator 19.0.0, SVG Export Plug-In . SVG Version: 6.00 Build 0)  -->
<svg version="1.1" id="Layer_1" xmlns="http://www.w3.org/2000/svg" xmlns:xlink="http://www.w3.org/1999/xlink" x="0px" y="0px"
	 viewBox="0 0 150 150" style="enable-background:new 0 0 150 150;" xml:space="preserve">
<g id="XMLID_9_">
	<g id="XMLID_12_">
		<path id="XMLID_13_" d="M75.5,92C57.4,92,43,77.3,43,59.5c0-18.1,14.7-32.6,32.6-32.6c18.1,0,32.6,14.7,32.6,32.6S93.6,92,75.5,92
			z M75.5,31.5c-15.4,0-27.7,12.5-27.7,27.7c0,15.4,12.5,28,27.7,28c15.4,0,27.7-12.5,27.7-28C103.2,44,90.9,31.5,75.5,31.5z"/>
	</g>
	<g id="XMLID_10_">
		<path id="XMLID_11_" d="M129.1,124.6c-0.7,0-1.2-0.2-1.7-0.7c-28.5-28.5-75-28.5-103.5,0c-1,1-2.4,1-3.4,0c-1-1-1-2.4,0-3.4
			c30.4-30.4,79.8-30.4,110.2,0c1,1,1,2.4,0,3.4C130.3,124.3,129.5,124.6,129.1,124.6z"/>
	</g>
</g>
</svg>
